<!DOCTYPE svg PUBLIC "-//W3C//DTD SVG 1.1//EN" "http://www.w3.org/Graphics/SVG/1.1/DTD/svg11.dtd">
<!-- Uploaded to: SVG Repo, www.svgrepo.com, Transformed by: SVG Repo Mixer Tools -->
<svg fill="#ffffff" height="64px" width="64px" version="1.1" id="Layer_1" xmlns="http://www.w3.org/2000/svg" xmlns:xlink="http://www.w3.org/1999/xlink" viewBox="-61.44 -61.44 634.88 634.88" xml:space="preserve" stroke="#ffffff">
<g id="SVGRepo_bgCarrier" stroke-width="0">
<rect x="-61.44" y="-61.44" width="634.88" height="634.88" rx="76.1856" fill="#1691DB" strokewidth="0"/>
</g>
<g id="SVGRepo_tracerCarrier" stroke-linecap="round" stroke-linejoin="round" stroke="#1691DB" stroke-width="1.024"/>
<g id="SVGRepo_iconCarrier"> <g> <g> <path d="M217.043,0H16.696C7.475,0,0,7.475,0,16.696v200.348c0,9.22,7.475,16.696,16.696,16.696h200.348 c9.22,0,16.696-7.475,16.696-16.696V16.696C233.739,7.475,226.264,0,217.043,0z M200.348,200.348H33.391V33.391h166.957V200.348z"/> </g> </g> <g> <g> <path d="M495.304,0H294.957c-9.22,0-16.696,7.475-16.696,16.696v200.348c0,9.22,7.475,16.696,16.696,16.696h200.348 c9.22,0,16.696-7.475,16.696-16.696V16.696C512,7.475,504.525,0,495.304,0z M478.609,200.348H311.652V33.391h166.957V200.348z"/> </g> </g> <g> <g> <path d="M217.043,278.261H16.696C7.475,278.261,0,285.736,0,294.957v200.348C0,504.525,7.475,512,16.696,512h200.348 c9.22,0,16.696-7.475,16.696-16.696V294.957C233.739,285.736,226.264,278.261,217.043,278.261z M200.348,478.609H33.391V311.652 h166.957V478.609z"/> </g> </g> <g> <g> <path d="M495.304,278.261H294.957c-9.22,0-16.696,7.475-16.696,16.696v200.348c0,9.22,7.475,16.696,16.696,16.696h200.348 c9.22,0,16.696-7.475,16.696-16.696V294.957C512,285.736,504.525,278.261,495.304,278.261z M478.609,478.609H311.652V311.652 h166.957V478.609z"/> </g> </g> <g> <g> <path d="M140.481,395.13l11.806-11.806c6.52-6.52,6.52-17.091,0-23.611c-6.519-6.519-17.091-6.52-23.611,0l-11.806,11.806 l-11.805-11.806c-6.519-6.519-17.091-6.52-23.611,0c-6.52,6.52-6.52,17.091,0,23.611l11.805,11.806l-11.806,11.806 c-6.52,6.52-6.52,17.091,0.001,23.611c3.26,3.26,7.533,4.89,11.805,4.89c4.272,0,8.546-1.629,11.805-4.891l11.806-11.805 l11.805,11.806c3.26,3.26,7.533,4.891,11.805,4.891c4.272,0,8.546-1.631,11.805-4.89c6.52-6.52,6.52-17.091,0-23.611 L140.481,395.13z"/> </g> </g> <g> <g> <path d="M150.261,100.174h-16.696V83.478c0-9.22-7.475-16.696-16.696-16.696s-16.696,7.475-16.696,16.696v16.696H83.478 c-9.22,0-16.696,7.475-16.696,16.696s7.475,16.696,16.696,16.696h16.696v16.696c0,9.22,7.475,16.696,16.696,16.696 s16.696-7.475,16.696-16.696v-16.696h16.696c9.22,0,16.696-7.475,16.696-16.696S159.481,100.174,150.261,100.174z"/> </g> </g> <g> <g> <path d="M428.522,100.174h-66.783c-9.22,0-16.696,7.475-16.696,16.696s7.475,16.696,16.696,16.696h66.783 c9.22,0,16.696-7.475,16.696-16.696S437.742,100.174,428.522,100.174z"/> </g> </g> <g> <g> <path d="M428.522,345.043h-66.783c-9.22,0-16.696,7.475-16.696,16.696s7.475,16.696,16.696,16.696h66.783 c9.22,0,16.696-7.475,16.696-16.696S437.742,345.043,428.522,345.043z"/> </g> </g> <g> <g> <path d="M428.522,411.826h-66.783c-9.22,0-16.696,7.475-16.696,16.696s7.475,16.696,16.696,16.696h66.783 c9.22,0,16.696-7.475,16.696-16.696S437.742,411.826,428.522,411.826z"/> </g> </g> </g>
</svg>